<svg id="Layer_1" data-name="Layer 1" xmlns="http://www.w3.org/2000/svg" xmlns:xlink="http://www.w3.org/1999/xlink" viewBox="0 0 652.4 464.61"><defs><style>.cls-1{fill:none;}.cls-2{fill:url(#linear-gradient);}.cls-3{fill:url(#linear-gradient-2);}.cls-4{font-size:147px;fill:#303031;}.cls-4,.cls-5{font-family:Montserrat-Black, Montserrat;}.cls-5{font-size:26px;fill:#e73a1e;}.cls-6{letter-spacing:-0.04em;}.cls-7{letter-spacing:-0.02em;}</style><linearGradient id="linear-gradient" x1="252.29" y1="625.54" x2="122.11" y2="400.06" gradientUnits="userSpaceOnUse"><stop offset="0" stop-color="#1d1d1b"/><stop offset="0.15" stop-color="#363634"/><stop offset="0.35" stop-color="#4f4f4e"/><stop offset="0.55" stop-color="#626160"/><stop offset="0.76" stop-color="#6c6c6b"/><stop offset="1" stop-color="#706f6f"/></linearGradient><linearGradient id="linear-gradient-2" x1="156.06" y1="600.93" x2="375.77" y2="727.78" gradientUnits="userSpaceOnUse"><stop offset="0" stop-color="#be1622"/><stop offset="0.17" stop-color="#cb2720"/><stop offset="0.46" stop-color="#db3c1d"/><stop offset="0.74" stop-color="#e64a1c"/><stop offset="1" stop-color="#e94e1b"/></linearGradient></defs><title>GBN Projekat 1</title><path class="cls-1" d="M233.74,519.24h-.88a46.51,46.51,0,0,0-46.52,46.51v55.82A46.57,46.57,0,0,0,189,637.08l30.66-12.76L189,637.08a46.54,46.54,0,0,0,43.86,31h.88a46.52,46.52,0,0,0,46.52-46.52V565.75c0-.74,0-1.48-.06-2.21h0A46.51,46.51,0,0,0,233.74,519.24Z" transform="translate(-106.6 -362.97)"/><path class="cls-2" d="M186.34,621.57V565.75a46.51,46.51,0,0,1,46.52-46.51h.88a46.51,46.51,0,0,1,46.46,44.3h79.49A126.7,126.7,0,0,0,233.3,445.7h0a126.33,126.33,0,0,0-47,9V363L106.6,435.33V614A126.22,126.22,0,0,0,118,666.63L186.34,637Z" transform="translate(-106.6 -362.97)"/><path class="cls-3" d="M360,601.54V572.43c0-3-.11-5.94-.31-8.87H305.51v-.08H186.34V637L118,666.84a126.72,126.72,0,0,0,115.3,74.24h0c17.25,0,32-3.46,47-9.71v96.21L360,755.09V601.54ZM233.74,668.3h-.88c-19.9,0-39.78-13.66-46.52-31.27l91.91.3C271.66,655,253.72,668.3,233.74,668.3Z" transform="translate(-106.6 -362.97)"/><text class="cls-4" transform="translate(301.4 255.24)">GBN</text><text class="cls-5" transform="translate(312.22 279.73)">INTERN<tspan class="cls-6" x="104.78" y="0">A</tspan><tspan x="124.82" y="0">TIONAL </tspan><tspan class="cls-7" x="238.68" y="0">D.O.O</tspan><tspan x="317.46" y="0">.</tspan></text></svg>