<svg xmlns="http://www.w3.org/2000/svg" xmlns:xlink="http://www.w3.org/1999/xlink" viewBox="0 0 707.17 465.74"><defs><style>.cls-1{font-size:190.49px;fill:#fff;}.cls-1,.cls-5{font-family:Montserrat-Black, Montserrat;}.cls-2{fill:none;}.cls-3{fill:url(#linear-gradient);}.cls-4{stroke:#a09f9f;stroke-miterlimit:10;fill:url(#linear-gradient-2);}.cls-5{font-size:35.18px;fill:#ef482b;}.cls-6{letter-spacing:-0.08em;}.cls-7{letter-spacing:0em;}.cls-8{letter-spacing:-0.02em;}.cls-9{letter-spacing:0em;}.cls-10{letter-spacing:-0.02em;}</style><linearGradient id="linear-gradient" x1="84.43" y1="161.09" x2="301.92" y2="512.07" gradientUnits="userSpaceOnUse"><stop offset="0" stop-color="#fff"/><stop offset="1"/></linearGradient><linearGradient id="linear-gradient-2" x1="297.63" y1="549.9" x2="75.64" y2="150.92" gradientUnits="userSpaceOnUse"><stop offset="0.7" stop-color="#fff"/><stop offset="1"/></linearGradient></defs><title>Asset 1</title><g id="Layer_2" data-name="Layer 2"><g id="Layer_1-2" data-name="Layer 1"><text class="cls-1" transform="translate(279.9 288.01)">GBN</text><path class="cls-2" d="M127.14,156.27h-.89a46.52,46.52,0,0,0-46.52,46.52V258.6a46.42,46.42,0,0,0,2.66,15.51l30.66-12.76L82.4,274.11a46.53,46.53,0,0,0,43.86,31h.89a46.52,46.52,0,0,0,46.52-46.52V202.78c0-.74,0-1.48-.06-2.22h0A46.51,46.51,0,0,0,127.14,156.27Z"/><path class="cls-3" d="M79.74,258.6V202.78a46.52,46.52,0,0,1,46.52-46.52h.89a46.51,46.51,0,0,1,46.46,44.3h79.48A126.7,126.7,0,0,0,126.7,82.73h0a126.35,126.35,0,0,0-47,9V0L0,72.36V251.07a126.23,126.23,0,0,0,11.4,52.59l68.34-29.6Z"/><path class="cls-4" d="M253.4,238.57v-29.1c0-3-.11-5.94-.31-8.88H198.91v-.08H79.74v73.55L11.4,303.87a126.71,126.71,0,0,0,115.3,74.24h0c17.25,0,32-3.46,47-9.71v96.21l79.74-72.49V238.57ZM127.14,305.33h-.89c-19.9,0-39.78-13.66-46.52-31.27l91.91.3C165.06,292.07,147.12,305.33,127.14,305.33Z"/><text class="cls-5" transform="translate(279.9 335.92)">INTERN<tspan class="cls-6" x="138.94" y="0">A</tspan><tspan class="cls-7" x="164.24" y="0">TIONAL </tspan><tspan class="cls-8" x="309.76" y="0">D</tspan><tspan class="cls-9" x="335.65" y="0">.</tspan><tspan class="cls-8" x="344.97" y="0">O</tspan><tspan x="372.3" y="0">.</tspan><tspan class="cls-10" x="381.62" y="0">O</tspan><tspan x="408.95" y="0">.</tspan></text></g></g></svg>